<?xml version="1.0" standalone="no"?>
<!DOCTYPE svg PUBLIC "-//W3C//DTD SVG 20010904//EN"
 "http://www.w3.org/TR/2001/REC-SVG-20010904/DTD/svg10.dtd">
<svg version="1.0" xmlns="http://www.w3.org/2000/svg"
 width="1280.000000pt" height="914.000000pt" viewBox="0 0 1280.000000 914.000000"
 preserveAspectRatio="xMidYMid meet">

<g transform="translate(0.000000,914.000000) scale(0.100000,-0.100000)"
fill="#000000" stroke="none">
<path d="M0 7310 l0 -1830 84 0 c48 0 101 6 126 15 53 19 230 107 290 145 l45
28 1643 1 1642 1 38 -25 c39 -27 46 -32 223 -166 118 -89 179 -148 179 -175 0
-31 -22 -63 -94 -132 -27 -26 -96 -96 -155 -156 -58 -59 -123 -119 -143 -132
l-38 -24 -1645 0 -1646 0 -57 29 c-108 55 -122 62 -127 72 -4 5 -44 31 -91 59
l-85 50 -94 0 -95 0 0 -2535 0 -2535 1845 0 1845 0 0 93 0 93 -52 26 c-29 15
-75 35 -103 46 -168 66 -341 193 -487 357 -126 141 -127 143 -204 257 -96 142
-99 146 -174 204 -84 65 -228 164 -239 164 -4 0 -16 9 -26 20 -17 19 -31 20
-395 20 -314 0 -380 2 -389 14 -11 13 -125 95 -169 121 -65 39 -171 111 -191
129 -13 11 -36 40 -53 64 l-29 42 42 80 c57 107 239 288 344 342 70 36 70 36
265 47 107 6 278 12 380 14 l185 2 80 45 c86 48 214 168 316 296 61 75 80 109
134 228 45 101 125 182 212 215 97 37 236 110 288 151 90 70 180 128 225 145
176 65 165 63 391 70 283 9 514 -10 639 -54 160 -55 219 -88 309 -173 31 -30
76 -69 101 -88 25 -19 50 -38 55 -43 6 -4 26 -21 45 -37 19 -16 39 -30 43 -30
14 0 80 -52 115 -89 18 -19 66 -91 107 -160 41 -70 81 -135 88 -146 6 -11 31
-50 53 -86 23 -37 57 -78 75 -92 49 -36 149 -84 262 -123 l98 -34 918 0 918 0
47 30 c26 17 49 30 51 30 17 0 134 115 185 180 23 30 61 75 84 100 69 76 104
125 147 207 73 140 143 209 257 252 80 30 184 95 260 162 91 81 218 140 382
177 89 20 443 25 628 8 166 -15 176 -17 255 -55 47 -23 117 -69 165 -109 46
-39 165 -119 264 -179 248 -148 256 -156 340 -329 37 -78 75 -161 83 -183 28
-79 104 -173 159 -196 50 -21 302 -85 338 -87 43 -1 169 43 284 99 72 35 98
54 127 92 l37 48 0 724 c0 783 1 764 -57 1022 -13 62 -25 88 -53 120 -52 60
-100 124 -100 132 0 3 -11 21 -24 38 -13 18 -39 64 -58 103 -67 137 -116 188
-229 232 -46 19 -122 50 -169 70 l-85 37 -1360 7 c-1035 4 -1390 9 -1484 20
l-124 13 -55 55 c-30 30 -94 100 -141 156 -85 100 -94 111 -139 168 l-22 29 0
1283 0 1282 -51 45 c-59 51 -158 106 -246 136 l-62 21 -2929 0 -2928 0 -73 25
c-82 27 -183 81 -221 117 -58 53 -126 178 -170 310 l-22 67 35 48 c31 42 86
93 102 93 10 0 330 143 339 151 6 5 1347 9 3095 9 2775 0 3107 -2 3296 -16
l210 -17 90 -45 c50 -25 110 -59 135 -76 24 -17 50 -33 57 -36 6 -3 36 -26 66
-52 40 -34 56 -56 60 -80 8 -46 14 -75 49 -223 l31 -130 51 -41 c28 -23 78
-55 111 -71 l60 -30 735 -5 735 -5 65 -33 c84 -44 156 -116 208 -210 22 -41
70 -108 106 -149 76 -86 116 -162 161 -311 71 -231 119 -328 209 -425 30 -33
66 -80 80 -105 22 -41 141 -372 154 -429 6 -31 91 -158 127 -191 39 -36 110
-156 131 -220 9 -30 21 -64 25 -75 5 -11 25 -72 45 -135 20 -63 48 -131 62
-150 14 -19 73 -82 131 -140 87 -86 115 -121 151 -190 37 -71 64 -105 165
-205 106 -106 125 -131 164 -210 50 -101 90 -166 108 -178 7 -4 13 -13 13 -20
0 -7 23 -36 50 -64 l50 -53 90 0 90 0 0 2285 0 2285 -6400 0 -6400 0 0 -1830z
m4516 -37 c75 -9 87 -13 143 -55 75 -56 96 -82 111 -138 6 -25 24 -83 39 -130
15 -47 33 -109 40 -138 13 -51 12 -54 -15 -90 -79 -105 -226 -217 -296 -226
-196 -23 -444 -26 -1792 -26 l-1458 0 -103 30 c-57 17 -139 37 -182 46 -43 9
-95 27 -115 40 -62 40 -144 153 -140 194 10 107 34 290 43 325 14 55 87 131
139 144 19 5 100 14 180 21 80 7 150 14 155 16 22 7 3176 -5 3251 -13z m-1596
-3213 c85 -11 167 -22 182 -26 34 -7 106 -70 153 -134 33 -45 36 -55 32 -98
-3 -26 -10 -96 -16 -157 -13 -132 -30 -211 -48 -226 -7 -6 -13 -16 -13 -21 0
-12 -36 -43 -71 -63 -16 -8 -97 -20 -205 -30 -150 -13 -304 -15 -959 -12
l-780 3 -138 26 c-125 24 -142 30 -182 63 -75 61 -81 75 -99 235 -23 208 -22
227 17 276 68 88 99 106 226 132 64 13 141 30 171 37 42 9 235 13 815 14 701
1 772 -1 915 -19z"/>
<path d="M8879 7281 c-74 -31 -140 -75 -182 -118 l-27 -29 0 -553 0 -552 27
-47 c37 -65 126 -156 198 -203 l60 -39 736 0 c693 0 739 1 778 18 67 30 134
81 169 129 41 55 83 147 73 159 -12 13 -85 192 -100 244 -7 25 -19 63 -26 85
-7 22 -18 59 -25 83 -7 23 -19 47 -27 53 -7 6 -13 17 -13 23 0 17 -59 99 -110
152 -64 67 -157 274 -185 412 -8 40 -90 142 -137 170 -49 29 -278 42 -748 42
l-395 -1 -66 -28z"/>
<path d="M4120 2500 c-233 -55 -268 -71 -357 -159 -118 -114 -172 -162 -238
-212 -54 -40 -99 -83 -117 -113 -7 -12 -21 -97 -43 -266 -14 -104 -13 -106 11
-180 25 -74 72 -174 122 -260 35 -62 193 -220 272 -275 60 -41 76 -47 215 -75
83 -16 166 -34 185 -38 28 -7 47 -3 99 21 62 27 192 68 259 81 47 8 131 65
177 120 45 53 105 153 105 176 0 32 105 251 129 270 4 3 14 16 22 30 15 24 15
30 -13 110 -16 47 -40 126 -54 175 -32 111 -30 107 -123 235 -168 233 -251
291 -513 364 -31 9 -58 16 -60 15 -1 0 -37 -9 -78 -19z"/>
<path d="M9630 2508 c-56 -8 -129 -21 -210 -38 -25 -5 -56 -12 -70 -14 -27 -6
-90 -60 -129 -111 -40 -53 -124 -138 -206 -209 -44 -37 -91 -83 -105 -101 -35
-45 -101 -291 -102 -380 -1 -108 127 -321 285 -477 147 -145 218 -192 317
-207 41 -6 116 -21 165 -32 50 -10 98 -19 107 -19 9 0 55 16 103 35 47 19 127
44 178 56 50 12 106 31 122 42 42 29 135 126 135 142 0 7 5 15 11 17 5 2 33
70 60 152 27 82 63 171 79 198 17 26 30 52 30 57 0 5 5 11 11 13 6 2 -4 73
-29 201 l-39 197 -73 96 c-73 96 -104 133 -173 210 -45 50 -163 111 -287 147
-115 34 -117 34 -180 25z"/>
<path d="M12590 1453 c-54 -21 -206 -97 -264 -131 l-68 -42 -363 0 c-385 0
-359 3 -480 -49 -81 -35 -122 -51 -195 -75 -93 -31 -143 -82 -202 -206 -22
-47 -54 -114 -71 -150 -16 -36 -44 -83 -60 -105 -63 -82 -215 -228 -293 -280
-81 -55 -112 -69 -254 -120 -41 -15 -108 -46 -147 -68 l-73 -41 0 -93 0 -93
1340 0 1340 0 0 730 0 730 -97 -1 c-54 0 -105 -3 -113 -6z"/>
<path d="M6010 1270 c-41 -26 -259 -114 -308 -125 -37 -8 -127 -101 -159 -166
-12 -24 -38 -86 -58 -138 -65 -167 -157 -288 -305 -398 -81 -60 -219 -135
-276 -149 -35 -9 -150 -56 -211 -86 l-43 -22 0 -93 0 -93 2230 0 2231 0 -3 92
-3 92 -90 46 c-179 91 -423 267 -485 350 -130 173 -311 387 -372 441 -40 35
-75 66 -78 69 -3 3 -34 30 -70 60 -36 30 -83 72 -105 92 l-40 38 -920 -1
c-550 0 -926 -4 -935 -9z"/>
</g>
</svg>
