<?xml version="1.0" standalone="no"?>
<!DOCTYPE svg PUBLIC "-//W3C//DTD SVG 20010904//EN"
 "http://www.w3.org/TR/2001/REC-SVG-20010904/DTD/svg10.dtd">
<svg version="1.0" xmlns="http://www.w3.org/2000/svg"
 width="1280.000000pt" height="1280.000000pt" viewBox="0 0 1280.000000 1280.000000"
 preserveAspectRatio="xMidYMid meet">

<g transform="translate(0.000000,1280.000000) scale(0.100000,-0.100000)"
fill="#000000" stroke="none">
<path d="M0 7714 l0 -5086 67 5 c38 3 77 7 88 10 11 3 24 6 28 6 19 2 76 73
101 126 32 66 67 171 90 270 53 223 94 324 164 414 87 109 129 195 214 436 6
17 17 37 24 46 8 8 14 19 14 23 0 14 55 81 121 148 91 93 133 181 195 403 39
142 71 198 170 295 80 79 89 93 173 259 122 243 118 237 196 321 88 94 112
127 154 215 19 39 38 78 42 87 5 10 9 24 9 31 0 23 97 161 147 208 69 67 94
102 170 239 118 211 129 227 226 325 92 92 104 109 158 222 65 134 104 182
191 230 76 43 139 117 191 226 34 72 59 107 108 155 35 34 68 62 72 62 12 0
87 81 98 105 5 11 13 27 19 35 5 8 35 58 66 110 50 83 90 128 330 370 150 151
282 286 294 300 12 14 38 43 59 65 20 22 70 81 111 130 88 107 89 108 143 152
66 55 177 164 237 234 72 83 110 120 198 190 89 71 133 112 287 260 66 65 172
160 235 214 63 53 147 129 185 169 91 94 128 122 253 187 81 42 114 66 150
108 108 125 167 176 252 220 102 53 155 94 201 156 76 104 108 127 319 221
124 55 159 80 334 237 46 42 116 75 259 123 146 48 216 87 290 159 112 109
206 161 392 215 151 44 201 70 301 161 48 43 112 90 142 104 31 15 133 44 227
66 93 22 195 49 225 60 56 20 163 81 190 108 25 25 121 83 185 112 82 37 185
62 401 99 300 50 366 72 554 184 163 97 464 171 877 216 409 44 682 110 741
180 29 34 45 92 36 133 l-6 27 -5849 0 -5849 0 0 -5086z"/>
<path d="M12581 12733 c3 -38 11 -81 17 -96 16 -37 66 -57 142 -57 l60 0 0
110 0 110 -113 0 -112 0 6 -67z"/>
<path d="M11465 11834 c-11 -3 -74 -23 -140 -45 -113 -37 -196 -52 -540 -99
-49 -7 -123 -21 -164 -32 -74 -19 -281 -91 -312 -108 -19 -10 -219 -94 -294
-122 -92 -36 -205 -67 -333 -93 -237 -49 -349 -92 -490 -188 -90 -62 -111 -73
-224 -116 -162 -61 -297 -160 -331 -242 -39 -95 -39 -82 -39 -2473 0 -1318 -4
-2358 -9 -2421 -13 -155 2 -254 45 -296 57 -57 79 -63 175 -50 171 23 193 39
314 221 99 150 111 164 206 266 95 101 201 237 201 258 0 3 21 40 46 83 30 51
78 110 142 173 98 96 105 107 186 280 48 100 50 103 136 193 85 88 122 151
213 367 65 156 86 185 186 269 89 74 125 139 176 316 26 90 41 135 64 188 22
50 99 165 127 188 22 18 84 116 84 132 0 7 4 17 10 23 9 9 45 133 85 289 55
222 81 285 175 424 104 155 153 278 190 481 42 231 87 367 156 477 108 171
148 310 194 681 30 246 47 332 96 484 33 103 44 152 44 201 0 115 -47 202
-139 258 -47 29 -63 33 -135 35 -44 2 -90 0 -101 -2z"/>
<path d="M12684 11569 c-64 -23 -124 -128 -167 -289 -29 -112 -41 -183 -62
-385 -37 -353 -81 -622 -120 -740 -20 -57 -69 -154 -93 -182 -27 -30 -40 -53
-78 -132 -44 -90 -56 -136 -89 -332 -14 -85 -29 -172 -34 -194 -13 -69 -68
-169 -124 -227 -106 -109 -132 -161 -157 -308 -36 -220 -100 -457 -134 -500
-6 -8 -18 -28 -26 -44 -8 -16 -41 -56 -73 -90 -90 -94 -124 -153 -168 -294
-51 -163 -84 -242 -120 -292 -16 -22 -29 -43 -29 -47 0 -5 -32 -43 -70 -86
-52 -57 -84 -106 -120 -181 -28 -57 -50 -109 -50 -115 0 -6 -4 -19 -9 -29 -5
-9 -17 -35 -27 -57 -25 -52 -64 -105 -138 -185 -63 -68 -96 -107 -96 -114 0
-2 -49 -88 -110 -191 -78 -134 -127 -204 -172 -251 -79 -82 -108 -125 -165
-240 -53 -109 -92 -157 -170 -210 -71 -48 -139 -116 -157 -158 -7 -17 -31 -71
-52 -121 -21 -49 -55 -115 -76 -145 -20 -30 -146 -166 -280 -301 -303 -307
-438 -450 -438 -465 0 -13 -72 -88 -219 -228 -45 -44 -110 -118 -143 -164 -75
-106 -84 -115 -188 -189 -84 -60 -154 -125 -260 -239 -30 -33 -88 -86 -129
-118 -81 -65 -138 -117 -280 -255 -99 -96 -197 -175 -311 -250 -36 -24 -108
-87 -160 -140 -83 -85 -109 -105 -205 -156 -127 -67 -157 -92 -230 -196 -63
-88 -90 -108 -245 -182 -115 -55 -124 -62 -248 -194 -17 -18 -55 -48 -84 -66
-53 -33 -79 -46 -253 -127 -113 -52 -139 -72 -214 -164 -72 -88 -124 -124
-236 -165 -142 -51 -184 -78 -281 -175 -95 -96 -158 -135 -329 -200 -185 -72
-220 -93 -295 -182 -53 -63 -127 -111 -232 -149 -202 -73 -274 -115 -412 -244
-77 -71 -162 -115 -289 -151 -105 -29 -225 -77 -267 -108 -59 -43 -175 -137
-178 -144 -2 -5 -10 -8 -18 -8 -8 0 -14 -4 -14 -8 0 -14 -124 -60 -274 -102
-208 -57 -305 -110 -345 -189 -22 -43 -36 -120 -26 -150 l6 -21 5040 0 5039 0
0 5785 c0 4621 -3 5785 -12 5786 -48 6 -87 5 -104 -2z"/>
<path d="M7429 10286 c-129 -37 -290 -138 -398 -249 -58 -60 -93 -85 -157
-117 -45 -22 -87 -40 -93 -40 -21 0 -115 -52 -157 -86 -23 -18 -58 -58 -77
-87 -55 -82 -104 -120 -249 -191 -101 -49 -150 -80 -199 -124 -108 -100 -173
-250 -188 -437 -3 -44 -4 -1351 -1 -2905 5 -2685 6 -2828 24 -2880 21 -65 66
-110 110 -110 32 0 74 29 151 102 49 48 132 94 210 118 89 27 155 81 220 180
62 92 85 111 215 175 133 66 225 133 330 241 41 42 116 110 165 151 165 137
208 177 249 233 83 112 149 227 173 300 28 88 32 479 33 2897 0 1343 3 2448 6
2456 3 8 1 56 -5 106 -10 95 -37 170 -74 209 -55 59 -191 86 -288 58z"/>
<path d="M4864 8354 c-57 -39 -72 -59 -124 -169 -51 -107 -100 -176 -180 -251
-27 -25 -66 -72 -87 -103 -20 -31 -40 -58 -43 -61 -4 -3 -11 -12 -16 -22 -14
-26 -114 -129 -172 -178 -44 -36 -118 -119 -262 -293 -8 -10 -62 -66 -119
-125 -124 -127 -201 -229 -256 -338 -32 -63 -61 -100 -145 -184 -86 -85 -114
-121 -149 -190 -62 -119 -85 -147 -176 -206 -112 -73 -148 -112 -184 -199 -17
-40 -31 -78 -31 -83 0 -15 -55 -131 -82 -174 -13 -20 -55 -70 -94 -110 -97
-100 -144 -176 -184 -298 -43 -132 -83 -185 -189 -254 -87 -56 -127 -112 -181
-256 -51 -137 -82 -185 -194 -307 -105 -115 -132 -164 -185 -328 -51 -157 -72
-194 -166 -296 -40 -44 -81 -96 -90 -117 -35 -76 -44 -98 -64 -157 -11 -33
-29 -95 -41 -138 -30 -115 -58 -153 -199 -265 -70 -56 -92 -101 -93 -190 -3
-140 52 -214 176 -235 54 -9 93 -8 213 7 82 10 191 27 243 37 156 31 374 42
590 30 420 -24 474 -61 520 -356 16 -97 16 -306 1 -395 -6 -36 -16 -166 -22
-290 -6 -124 -19 -281 -30 -350 -10 -69 -19 -142 -19 -162 0 -113 95 -190 236
-191 99 -1 164 32 244 122 83 93 137 122 322 175 241 70 280 92 372 212 67 88
130 128 271 174 106 34 190 83 295 170 102 85 186 132 316 178 83 30 99 38
150 82 60 51 78 101 94 247 12 109 16 5613 5 5686 -9 61 -59 137 -105 159 -54
26 -120 23 -166 -8z"/>
<path d="M32 2142 l-32 -3 0 -1070 0 -1069 1070 0 1070 0 6 25 c11 43 -6 157
-32 214 -13 29 -46 79 -73 110 -125 144 -136 233 -60 463 27 83 35 129 59 361
5 54 23 166 40 249 25 123 30 174 30 286 0 201 -28 305 -95 350 -135 93 -797
55 -1155 -65 -131 -44 -183 -55 -265 -56 -94 0 -129 13 -210 79 -84 68 -141
101 -193 113 -60 12 -118 17 -160 13z"/>
</g>
</svg>
