<?xml version="1.0" standalone="no"?>
<!DOCTYPE svg PUBLIC "-//W3C//DTD SVG 20010904//EN"
 "http://www.w3.org/TR/2001/REC-SVG-20010904/DTD/svg10.dtd">
<svg version="1.0" xmlns="http://www.w3.org/2000/svg"
 width="1280.000000pt" height="1280.000000pt" viewBox="0 0 1280.000000 1280.000000"
 preserveAspectRatio="xMidYMid meet">

<g transform="translate(0.000000,1280.000000) scale(0.100000,-0.100000)"
fill="#000000" stroke="none">
<path d="M0 10440 l0 -2360 43 0 c124 0 233 41 315 117 46 43 105 80 155 97
57 19 57 19 802 11 325 -3 689 -2 810 3 197 8 226 11 275 32 72 31 141 83 215
160 33 35 111 113 173 174 104 102 212 242 212 274 0 8 7 26 15 40 8 15 25 52
39 82 14 30 40 80 57 110 68 116 110 246 144 440 10 52 29 142 43 200 35 139
37 275 5 335 -28 51 -90 115 -162 167 -73 53 -105 88 -148 166 -52 92 -74 173
-74 268 -1 157 63 234 246 298 44 16 139 57 210 92 156 76 247 95 635 130 246
22 515 87 630 152 25 14 77 56 115 93 53 51 95 80 172 118 56 28 105 51 108
51 15 0 143 89 173 120 62 64 73 103 83 285 l9 166 54 137 c60 152 76 220 76
329 l0 73 -2715 0 -2715 0 0 -2360z"/>
<path d="M5920 12745 c0 -60 30 -153 58 -178 9 -8 73 -48 142 -87 191 -111
237 -145 350 -260 58 -59 125 -121 150 -137 62 -42 154 -80 235 -97 17 -4 68
-19 115 -33 76 -24 115 -42 278 -129 72 -38 159 -64 306 -89 151 -27 267 -31
330 -14 53 15 126 86 166 162 39 75 54 94 101 130 44 33 218 91 322 107 130
19 199 -2 279 -88 61 -65 93 -141 113 -272 15 -95 64 -280 93 -346 16 -38 35
-87 42 -109 7 -22 16 -50 21 -62 18 -47 21 -156 9 -263 -17 -137 -10 -166 72
-340 33 -69 63 -134 68 -145 46 -114 91 -187 157 -258 40 -43 73 -82 73 -87 0
-5 6 -15 13 -22 13 -13 47 -80 47 -93 0 -10 87 -142 107 -162 73 -73 139 -93
309 -93 189 0 212 -9 338 -127 55 -53 133 -120 172 -149 52 -39 77 -65 93 -98
39 -85 26 -122 -86 -239 -66 -70 -133 -179 -133 -219 0 -26 -63 -145 -129
-242 -37 -56 -73 -117 -80 -137 -26 -80 15 -187 85 -226 67 -37 201 -42 1199
-40 789 2 935 0 965 -12 19 -8 76 -44 125 -79 50 -36 108 -73 130 -83 49 -22
133 -35 198 -31 l47 3 0 2350 0 2349 -3440 0 -3440 0 0 -55z"/>
<path d="M5961 11369 c-30 -17 -102 -78 -160 -135 -58 -56 -118 -112 -133
-124 -48 -37 -154 -79 -314 -125 -86 -25 -181 -59 -212 -74 -31 -16 -100 -68
-152 -116 -111 -102 -261 -195 -371 -230 -42 -13 -137 -31 -210 -39 -150 -16
-195 -31 -233 -76 -39 -47 -38 -93 5 -221 43 -129 38 -177 -31 -284 -41 -63
-110 -240 -110 -283 0 -8 -7 -40 -16 -71 -54 -183 -67 -230 -79 -266 -8 -22
-26 -94 -41 -160 -34 -151 -44 -178 -116 -294 -69 -113 -97 -194 -99 -281 -2
-139 43 -227 137 -265 46 -18 80 -20 559 -23 565 -4 628 1 730 59 123 69 199
206 221 398 3 30 12 84 20 120 18 81 18 79 34 116 7 17 23 53 35 80 12 28 37
97 55 155 63 201 86 227 279 304 52 20 138 65 190 100 119 77 156 95 251 117
171 41 261 24 478 -93 60 -32 186 -80 366 -137 190 -61 219 -90 291 -286 20
-55 46 -118 57 -140 33 -62 36 -68 52 -105 26 -60 36 -121 36 -229 0 -127 23
-202 84 -276 61 -74 83 -92 171 -135 102 -49 194 -63 360 -52 66 4 181 5 255
2 218 -8 324 10 485 82 114 52 177 106 213 183 18 36 32 70 32 74 0 5 10 33
23 62 67 154 73 272 18 357 -35 56 -61 80 -148 141 -97 67 -141 149 -163 301
-36 243 -61 318 -140 425 -21 27 -57 68 -80 90 -98 94 -193 273 -269 509 -87
268 -159 311 -701 421 -241 49 -730 195 -880 262 -104 47 -195 81 -260 97 -36
9 -128 33 -205 53 -77 20 -167 38 -200 40 -53 3 -67 0 -114 -28z"/>
<path d="M6324 9011 c-26 -16 -124 -131 -124 -146 0 -3 -15 -27 -32 -53 -106
-153 -116 -231 -44 -327 71 -94 177 -168 259 -182 96 -15 316 134 367 250 18
41 19 47 4 89 -19 57 -227 334 -273 365 -43 29 -113 31 -157 4z"/>
<path d="M1125 7490 c-136 -8 -168 -15 -210 -43 -58 -39 -87 -73 -118 -137
-77 -164 -28 -400 103 -486 87 -58 -288 -54 5405 -54 3635 0 5268 3 5310 10
228 40 306 85 362 206 36 80 41 164 14 251 -34 115 -108 182 -241 219 -165 45
74 43 -5375 42 -2821 -1 -5184 -4 -5250 -8z"/>
<path d="M12590 6206 c-106 -23 -319 -146 -422 -244 -70 -67 -110 -127 -138
-210 l-21 -64 1 -2461 c0 -1354 3 -2484 6 -2512 9 -79 -11 -223 -41 -291 -14
-32 -50 -95 -79 -139 -57 -86 -76 -142 -76 -229 l0 -56 490 0 490 0 0 3110 0
3110 -77 -1 c-43 0 -103 -6 -133 -13z"/>
<path d="M0 3081 l0 -3081 490 0 490 0 0 56 c0 87 -19 143 -76 229 -29 44 -65
107 -79 139 -30 68 -50 212 -41 291 3 28 6 1157 6 2510 1 2458 1 2460 -20
2525 -61 191 -179 290 -440 370 -82 26 -129 34 -217 38 l-113 5 0 -3082z"/>
<path d="M1825 6019 c-164 -65 -223 -116 -270 -230 l-30 -74 0 -2275 c0 -2127
1 -2280 17 -2359 36 -169 68 -210 203 -261 83 -31 251 -40 322 -16 126 42 187
147 223 386 8 54 11 699 11 2285 l1 2211 -26 72 c-14 42 -44 97 -72 134 -54
70 -67 82 -136 119 -62 34 -168 37 -243 8z"/>
<path d="M3400 6013 c-178 -54 -294 -145 -342 -269 -10 -24 -25 -104 -34 -176
-14 -120 -14 -140 0 -206 8 -40 24 -86 36 -102 17 -24 158 -120 176 -120 15 0
276 -149 344 -196 134 -92 245 -136 440 -174 260 -50 330 -80 435 -180 104
-101 169 -127 405 -165 236 -38 422 -113 576 -231 108 -82 242 -126 594 -195
72 -14 151 -41 236 -80 110 -51 134 -50 261 9 133 62 186 77 333 97 262 36
338 67 451 179 42 42 80 76 84 76 5 0 16 6 24 14 29 26 164 64 291 81 270 37
388 81 515 194 135 119 228 155 510 196 225 33 288 60 409 174 90 84 140 112
300 167 144 49 260 108 291 148 32 42 55 148 49 229 -18 253 -59 352 -180 432
-81 55 -118 72 -197 96 -68 20 -82 20 -3002 22 l-2933 2 -72 -22z"/>
<path d="M10732 6011 c-68 -37 -83 -49 -133 -112 -27 -32 -57 -86 -73 -130
l-27 -74 0 -2273 c0 -2253 1 -2326 32 -2432 24 -81 68 -132 149 -173 39 -19
61 -22 170 -22 225 0 343 58 382 185 44 149 43 71 43 2465 l0 2270 -30 75
c-32 79 -87 144 -148 175 -157 80 -275 95 -365 46z"/>
<path d="M9470 4260 c-36 -11 -75 -24 -87 -30 -13 -5 -35 -16 -50 -22 -16 -7
-49 -27 -74 -45 -122 -83 -208 -113 -424 -148 -88 -15 -182 -33 -210 -41 -73
-21 -145 -65 -201 -124 -102 -107 -178 -138 -399 -165 -77 -9 -165 -23 -195
-32 -154 -43 -226 -137 -181 -236 31 -71 96 -117 217 -157 104 -34 192 -84
259 -146 85 -79 155 -109 332 -140 82 -14 175 -32 208 -40 74 -19 224 -74 231
-85 3 -5 12 -9 20 -9 18 0 64 -30 182 -121 81 -62 144 -87 255 -100 103 -13
225 -4 311 23 108 34 143 142 112 349 -13 85 -16 189 -15 505 1 220 4 442 8
494 10 151 -16 241 -77 270 -47 22 -150 22 -222 0z"/>
<path d="M3097 4190 c-55 -48 -60 -106 -58 -653 1 -385 -2 -485 -15 -560 -15
-85 -14 -144 2 -224 7 -38 67 -103 94 -103 10 0 21 -4 24 -9 11 -17 156 -34
250 -29 128 7 179 32 294 147 77 77 95 89 154 108 36 12 110 29 165 38 201 32
280 48 348 73 80 28 110 46 220 132 99 77 158 107 305 155 134 44 154 53 196
92 42 38 54 64 54 113 0 114 -90 170 -337 210 -257 41 -375 82 -481 167 -52
43 -216 125 -311 158 -39 13 -107 31 -153 40 -94 18 -312 68 -403 91 -33 8
-99 31 -146 50 -110 43 -156 44 -202 4z"/>
<path d="M6120 2930 c-85 -16 -185 -38 -221 -49 -62 -20 -156 -74 -204 -118
-48 -44 -154 -117 -195 -135 -72 -31 -175 -55 -325 -77 -77 -11 -165 -28 -195
-37 -80 -23 -165 -71 -205 -115 -104 -116 -185 -155 -379 -185 -156 -24 -295
-54 -353 -76 -63 -23 -160 -86 -222 -144 -74 -69 -160 -108 -338 -153 -182
-46 -252 -75 -317 -132 -56 -50 -88 -118 -112 -239 -17 -84 -19 -145 -19 -515
0 -450 2 -430 -52 -555 -8 -19 -19 -44 -24 -55 -29 -70 -42 -133 -46 -232 l-6
-113 3493 0 3493 0 -6 118 c-5 112 -24 190 -68 277 -5 11 -20 52 -34 90 -24
70 -24 72 -22 445 2 392 0 424 -44 555 -51 152 -133 259 -234 309 -82 40 -131
54 -286 81 -79 13 -159 29 -177 34 -52 16 -112 55 -172 113 -117 113 -143 124
-461 193 -218 46 -295 78 -429 175 -150 108 -308 167 -574 212 -217 36 -264
55 -361 148 -38 37 -84 76 -101 88 -44 30 -159 66 -305 96 -168 35 -291 34
-499 -4z"/>
</g>
</svg>
