<?xml version="1.0" standalone="no"?>
<!DOCTYPE svg PUBLIC "-//W3C//DTD SVG 20010904//EN"
 "http://www.w3.org/TR/2001/REC-SVG-20010904/DTD/svg10.dtd">
<svg version="1.0" xmlns="http://www.w3.org/2000/svg"
 width="1109.000000pt" height="1280.000000pt" viewBox="0 0 1109.000000 1280.000000"
 preserveAspectRatio="xMidYMid meet">

<g transform="translate(0.000000,1280.000000) scale(0.100000,-0.100000)"
fill="#000000" stroke="none">
<path d="M0 11840 l0 -960 214 0 214 0 76 82 c42 46 76 86 76 91 0 4 13 25 29
45 33 42 141 239 141 256 0 7 4 16 8 21 5 6 21 42 37 80 65 162 240 340 420
430 66 33 83 36 235 51 162 15 207 19 440 45 63 7 153 13 200 13 80 0 89 -2
160 -40 146 -78 225 -132 313 -214 89 -83 177 -197 220 -283 16 -34 41 -76 53
-94 13 -17 24 -35 24 -38 0 -8 126 -175 169 -225 17 -19 31 -41 31 -47 0 -7 3
-13 8 -13 6 0 45 -59 89 -135 23 -40 91 -183 98 -206 3 -13 13 -37 20 -54 7
-16 35 -82 60 -145 68 -166 191 -424 299 -628 29 -55 34 -78 40 -160 10 -137
44 -493 56 -582 5 -41 9 -100 10 -130 0 -61 20 -32 -193 -284 -83 -97 -155
-179 -227 -257 -14 -15 -63 -69 -110 -120 -47 -51 -118 -126 -157 -166 -40
-40 -73 -77 -73 -82 0 -5 -3 -11 -7 -13 -5 -1 -18 -23 -31 -47 -12 -24 -29
-55 -36 -70 -22 -40 -76 -158 -76 -166 0 -7 -24 -65 -39 -95 -4 -8 -18 -49
-30 -90 -12 -41 -26 -84 -31 -95 -4 -11 -13 -40 -20 -65 -7 -25 -18 -63 -26
-85 -32 -95 -30 -112 26 -220 28 -55 59 -108 67 -117 9 -10 13 -18 9 -18 -10
0 89 -124 139 -173 23 -23 68 -67 100 -97 64 -61 121 -133 181 -230 46 -73 51
-84 124 -260 28 -69 57 -138 65 -155 8 -16 37 -82 65 -145 29 -63 56 -119 60
-124 5 -5 6 -15 3 -22 -3 -8 -1 -14 4 -14 6 0 34 -46 63 -102 68 -134 122
-208 210 -294 214 -204 281 -276 345 -366 43 -60 150 -242 170 -288 38 -88
227 -297 286 -315 10 -4 19 -11 19 -16 0 -5 30 -23 68 -40 131 -61 276 -133
306 -153 17 -12 44 -28 60 -36 101 -51 279 -205 426 -369 30 -34 64 -67 76
-74 11 -6 58 -37 105 -68 46 -30 100 -64 119 -75 19 -10 42 -24 50 -30 16 -13
116 -65 160 -83 14 -6 32 -15 40 -20 8 -5 51 -24 95 -41 44 -18 105 -43 136
-56 31 -13 71 -27 88 -30 17 -4 33 -10 36 -13 6 -10 407 29 521 50 28 6 103
14 165 19 63 5 130 12 149 16 31 6 102 49 154 93 37 32 166 166 166 173 0 3 6
13 13 20 11 11 31 41 72 109 6 9 27 49 48 88 72 139 261 348 362 402 21 12 44
27 52 34 14 15 147 11 213 -6 19 -5 67 -9 105 -9 39 0 108 -4 155 -10 47 -5
153 -14 236 -20 171 -12 176 -14 304 -104 119 -84 245 -213 308 -314 92 -148
318 -326 487 -383 22 -8 42 -16 45 -19 3 -3 45 -23 94 -45 148 -65 303 -156
429 -252 72 -54 75 -57 145 -121 65 -60 77 -62 313 -62 l169 0 0 4910 0 4910
-5545 0 -5545 0 0 -960z"/>
<path d="M203 7252 l-203 -2 0 -3625 0 -3625 3830 0 3830 0 2 203 2 202 6
-205 5 -205 5 209 5 210 -44 28 c-25 15 -54 30 -65 33 -19 6 -73 26 -121 46
-89 36 -212 78 -320 109 -44 12 -98 28 -120 36 -23 8 -52 14 -67 14 -14 0 -44
7 -68 15 -23 8 -56 17 -73 19 -18 3 -61 12 -97 20 -98 22 -219 45 -275 51 -52
7 -267 68 -297 85 -10 6 -26 10 -35 10 -20 1 -106 30 -138 46 -11 6 -41 17
-67 24 -27 7 -48 16 -48 21 0 4 -17 11 -37 15 -21 4 -49 13 -63 20 -14 8 -36
18 -50 24 -14 5 -32 14 -40 19 -8 5 -31 16 -50 25 -75 34 -182 111 -261 187
-164 158 -209 195 -334 276 -62 40 -240 135 -305 162 -29 12 -36 17 -145 88
-125 81 -270 233 -360 375 -17 27 -33 48 -37 48 -5 0 -8 4 -8 9 0 18 -225 221
-244 221 -7 0 -195 118 -212 133 -7 6 -26 21 -41 32 -32 23 -156 145 -195 192
-25 29 -50 66 -154 228 -21 33 -55 78 -76 100 -21 21 -38 42 -38 45 0 10 -147
130 -159 130 -7 0 -14 6 -17 14 -3 8 -23 22 -45 30 -21 9 -39 20 -39 26 0 5
-6 10 -13 10 -18 0 -91 53 -172 125 -71 64 -195 205 -195 224 0 6 -4 11 -8 11
-5 0 -14 10 -20 23 -23 45 -58 103 -97 162 -44 65 -220 245 -279 285 -207 140
-356 326 -451 565 -24 60 -62 142 -123 260 -48 95 -173 263 -273 368 -110 116
-148 162 -180 222 -68 126 -83 150 -90 153 -5 2 -9 10 -9 17 0 8 -15 47 -34
87 -54 115 -120 310 -166 493 -41 162 -100 343 -149 460 -30 69 -86 177 -97
186 -8 6 -14 16 -14 21 0 11 -80 129 -93 139 -5 4 -14 17 -20 29 -22 42 -41
45 -254 42z"/>
<path d="M10632 1247 c-99 -107 -304 -252 -482 -342 -41 -20 -79 -41 -85 -45
-5 -4 -32 -15 -60 -25 -27 -10 -54 -22 -60 -26 -20 -14 -164 -68 -199 -75 -20
-3 -38 -10 -41 -14 -3 -5 -23 -11 -45 -15 -22 -4 -42 -11 -46 -16 -3 -5 -12
-9 -20 -9 -15 0 -48 -14 -174 -72 -36 -16 -76 -35 -90 -41 -14 -6 -50 -27 -80
-47 -30 -19 -67 -41 -82 -49 -69 -36 -68 -31 -68 -261 l0 -210 995 0 995 0 0
640 0 641 -214 -1 -214 -1 -30 -32z"/>
</g>
</svg>
