<?xml version="1.0" standalone="no"?>
<!DOCTYPE svg PUBLIC "-//W3C//DTD SVG 20010904//EN"
 "http://www.w3.org/TR/2001/REC-SVG-20010904/DTD/svg10.dtd">
<svg version="1.0" xmlns="http://www.w3.org/2000/svg"
 width="44.000000pt" height="68.000000pt" viewBox="0 0 44.000000 68.000000"
 preserveAspectRatio="xMidYMid meet">

<g transform="translate(0.000000,68.000000) scale(0.100000,-0.100000)"
fill="#000000" stroke="none">
<path d="M327 673 c-4 -3 -7 -138 -7 -300 l0 -293 -36 0 -37 0 6 87 c4 48 11
89 17 91 6 2 10 40 10 92 0 84 -2 91 -29 123 -21 23 -27 37 -20 48 24 39 -5
89 -53 89 -44 0 -73 -52 -49 -89 7 -11 1 -25 -20 -48 -27 -32 -29 -39 -29
-123 0 -48 4 -90 9 -92 5 -1 13 -42 17 -90 l7 -87 -54 -3 -54 -3 0 -34 c0 -39
23 -55 32 -22 5 20 11 21 184 21 174 0 179 -1 179 -21 0 -14 5 -19 18 -17 12
2 17 13 17 38 0 33 -2 35 -37 38 -30 3 -38 7 -38 23 0 12 7 19 20 19 13 0 20
7 20 20 0 13 -7 20 -20 20 -13 0 -20 7 -20 19 0 15 8 21 32 23 22 2 34 9 36
20 3 15 -4 18 -32 18 -29 0 -36 4 -36 20 0 13 7 20 20 20 13 0 20 7 20 20 0
13 -7 20 -20 20 -13 0 -20 7 -20 19 0 15 8 21 33 23 44 4 44 32 0 36 -25 2
-33 8 -33 23 0 12 7 19 20 19 13 0 20 7 20 20 0 13 -7 20 -20 20 -13 0 -20 7
-20 19 0 15 8 21 33 23 20 2 32 8 32 18 0 10 -12 16 -32 18 -25 2 -33 8 -33
23 0 12 7 19 20 19 13 0 20 7 20 20 0 13 -7 20 -19 20 -10 0 -21 9 -24 20 -5
20 -18 26 -30 13z m-132 -123 c0 -22 -29 -18 -33 3 -3 14 1 18 15 15 10 -2 18
-10 18 -18z m23 -100 c18 -17 22 -32 22 -85 l0 -65 -60 0 -60 0 0 65 c0 52 4
69 20 85 26 26 50 25 78 0z m-2 -222 c-3 -13 -6 -51 -6 -85 l0 -63 -30 0 c-29
0 -30 1 -30 48 0 26 -3 64 -6 85 l-7 37 43 0 c39 0 42 -2 36 -22z"/>
</g>
</svg>
