<?xml version="1.0" standalone="no"?>
<!DOCTYPE svg PUBLIC "-//W3C//DTD SVG 20010904//EN"
 "http://www.w3.org/TR/2001/REC-SVG-20010904/DTD/svg10.dtd">
<svg version="1.0" xmlns="http://www.w3.org/2000/svg"
 width="64.000000pt" height="64.000000pt" viewBox="0 0 64.000000 64.000000"
 preserveAspectRatio="xMidYMid meet">

<g transform="translate(0.000000,64.000000) scale(0.100000,-0.100000)"
fill="#000000" stroke="none">
<path d="M84 625 c-9 -22 4 -65 32 -108 29 -44 90 -76 147 -77 l37 0 0 -48 0
-49 -57 -16 c-74 -20 -146 -68 -182 -121 -36 -51 -64 -134 -59 -172 l3 -29
315 0 315 0 -1 51 c-1 37 -11 69 -34 113 -46 85 -113 136 -213 162 l-47 11 0
48 0 47 52 6 c69 9 124 46 150 103 10 25 18 55 16 67 -3 19 -10 22 -52 25 -63
4 -128 -20 -161 -60 l-25 -30 -22 27 c-12 15 -40 36 -62 46 -51 23 -144 26
-152 4z m162 -56 c24 -22 54 -69 54 -85 0 -3 -23 -4 -50 -2 -54 5 -90 30 -116
80 -20 39 -19 41 36 36 35 -4 59 -13 76 -29z m269 9 c-16 -53 -81 -98 -140
-98 -33 0 -36 2 -30 23 9 27 53 76 80 87 11 5 37 9 58 9 35 1 38 -1 32 -21z
m-114 -289 c57 -19 57 -26 -4 -87 -65 -66 -71 -91 -30 -134 l27 -28 -74 0
c-70 0 -76 2 -107 32 -18 18 -33 38 -33 46 0 8 18 34 40 58 33 36 40 51 40 84
l0 40 54 0 c29 0 68 -5 87 -11z m-181 -37 c0 -19 -12 -40 -40 -67 -48 -47 -51
-77 -13 -117 l27 -28 -77 0 c-73 0 -77 1 -77 23 0 57 66 151 140 200 34 23 40
21 40 -11z m307 -44 c37 -40 59 -81 68 -131 l7 -37 -78 0 c-74 0 -80 2 -111
32 -18 18 -33 39 -33 47 0 14 97 121 110 121 3 0 20 -15 37 -32z"/>
</g>
</svg>
